<svg width="304" height="84" viewBox="0 0 304 84" fill="none" xmlns="http://www.w3.org/2000/svg">
<g filter="url(#filter0_d)">
<path fill-rule="evenodd" clip-rule="evenodd" d="M21.1205 4.93061C26.5659 3.04602 32.5792 1.75573 37.8604 1L39.2138 8.52741C34.3729 9.22013 28.9671 10.3922 24.2112 12.0382C19.3398 13.7241 15.6774 15.7288 13.7539 17.8246C12.8459 18.814 12.4207 19.7189 12.3111 20.5634C12.2033 21.394 12.3587 22.4854 13.2094 23.9282C15.0096 26.9815 19.6506 31.134 29.3269 36.2465C41.9572 42.9197 48.4808 49.9109 48.9703 57.1955C49.4656 64.5661 43.6817 70.1615 37.5767 73.7723C31.308 77.48 23.4594 79.8916 17.0722 80.6974C13.9239 81.0946 10.7287 81.1552 8.11539 80.5471C6.79853 80.2407 5.31418 79.6925 4.10365 78.6647C2.78096 77.5416 2 76.0171 2 74.2888H10.5453C10.5453 73.8642 10.313 73.4124 9.99483 73.1423C9.91086 73.071 9.85716 73.0429 9.85736 73.0426C9.85764 73.0421 9.97168 73.1004 10.2719 73.1702C11.3062 73.4109 13.2116 73.485 15.8757 73.1489C21.1131 72.4882 27.7361 70.4459 32.8549 67.4183C38.1373 64.2939 40.6568 60.8727 40.4403 57.6517C40.2181 54.3445 37.015 49.1688 24.9724 42.8061C14.9105 37.4898 8.57525 32.4447 5.64649 27.4772C4.13268 24.9097 3.4854 22.2849 3.82246 19.6868C4.15772 17.1026 5.42479 14.8662 7.14218 12.9949C10.4696 9.36932 15.7907 6.77525 21.1205 4.93061Z" fill="#FF268E"/>
</g>
<g filter="url(#filter1_d)">
<path d="M70.7425 73.96C70.1291 74.4133 69.3691 74.76 68.4625 75C67.5825 75.2133 66.6491 75.32 65.6625 75.32C63.1025 75.32 61.1158 74.6667 59.7025 73.36C58.3158 72.0533 57.6225 70.1333 57.6225 67.6V58.76H54.3025V53.96H57.6225V48.72H63.8625V53.96H69.2225V58.76H63.8625V67.52C63.8625 68.4267 64.0891 69.1333 64.5425 69.64C65.0225 70.12 65.6891 70.36 66.5425 70.36C67.5291 70.36 68.3691 70.0933 69.0625 69.56L70.7425 73.96ZM83.8212 75.32C81.5545 75.32 79.5145 74.8533 77.7012 73.92C75.9145 72.96 74.5145 71.64 73.5012 69.96C72.4879 68.28 71.9812 66.3733 71.9812 64.24C71.9812 62.1067 72.4879 60.2 73.5012 58.52C74.5145 56.84 75.9145 55.5333 77.7012 54.6C79.5145 53.64 81.5545 53.16 83.8212 53.16C86.0879 53.16 88.1145 53.64 89.9012 54.6C91.6879 55.5333 93.0879 56.84 94.1012 58.52C95.1145 60.2 95.6212 62.1067 95.6212 64.24C95.6212 66.3733 95.1145 68.28 94.1012 69.96C93.0879 71.64 91.6879 72.96 89.9012 73.92C88.1145 74.8533 86.0879 75.32 83.8212 75.32ZM83.8212 70.2C85.4212 70.2 86.7279 69.6667 87.7412 68.6C88.7812 67.5067 89.3012 66.0533 89.3012 64.24C89.3012 62.4267 88.7812 60.9867 87.7412 59.92C86.7279 58.8267 85.4212 58.28 83.8212 58.28C82.2212 58.28 80.9012 58.8267 79.8612 59.92C78.8212 60.9867 78.3012 62.4267 78.3012 64.24C78.3012 66.0533 78.8212 67.5067 79.8612 68.6C80.9012 69.6667 82.2212 70.2 83.8212 70.2ZM105.752 56.32C106.499 55.28 107.499 54.4933 108.752 53.96C110.032 53.4267 111.499 53.16 113.152 53.16V58.92C112.459 58.8667 111.992 58.84 111.752 58.84C109.965 58.84 108.565 59.3467 107.552 60.36C106.539 61.3467 106.032 62.84 106.032 64.84V75H99.7921V53.48H105.752V56.32ZM137.747 64.32C137.747 64.4 137.707 64.96 137.627 66H121.347C121.64 67.3333 122.334 68.3867 123.427 69.16C124.52 69.9333 125.88 70.32 127.507 70.32C128.627 70.32 129.614 70.16 130.467 69.84C131.347 69.4933 132.16 68.96 132.907 68.24L136.227 71.84C134.2 74.16 131.24 75.32 127.347 75.32C124.92 75.32 122.774 74.8533 120.907 73.92C119.04 72.96 117.6 71.64 116.587 69.96C115.574 68.28 115.067 66.3733 115.067 64.24C115.067 62.1333 115.56 60.24 116.547 58.56C117.56 56.8533 118.934 55.5333 120.667 54.6C122.427 53.64 124.387 53.16 126.547 53.16C128.654 53.16 130.56 53.6133 132.267 54.52C133.974 55.4267 135.307 56.7333 136.267 58.44C137.254 60.12 137.747 62.08 137.747 64.32ZM126.587 57.88C125.174 57.88 123.987 58.28 123.027 59.08C122.067 59.88 121.48 60.9733 121.267 62.36H131.867C131.654 61 131.067 59.92 130.107 59.12C129.147 58.2933 127.974 57.88 126.587 57.88Z" fill="#FF268E"/>
</g>
<path d="M193.563 47L184.283 75H178.763L171.843 54.28L164.803 75H159.243L149.963 47H155.363L162.323 68.28L169.563 47H174.363L181.443 68.4L188.603 47H193.563ZM210.025 53.4C212.718 53.4 214.878 54.1867 216.505 55.76C218.132 57.3333 218.945 59.6667 218.945 62.76V75H213.945V63.4C213.945 61.5333 213.505 60.1333 212.625 59.2C211.745 58.24 210.492 57.76 208.865 57.76C207.025 57.76 205.572 58.32 204.505 59.44C203.438 60.5333 202.905 62.12 202.905 64.2V75H197.905V45.32H202.905V56.12C203.732 55.24 204.745 54.5733 205.945 54.12C207.172 53.64 208.532 53.4 210.025 53.4ZM245.563 64.44C245.563 64.7867 245.536 65.28 245.483 65.92H228.723C229.016 67.4933 229.776 68.7467 231.003 69.68C232.256 70.5867 233.803 71.04 235.643 71.04C237.99 71.04 239.923 70.2667 241.443 68.72L244.123 71.8C243.163 72.9467 241.95 73.8133 240.483 74.4C239.016 74.9867 237.363 75.28 235.523 75.28C233.176 75.28 231.11 74.8133 229.323 73.88C227.536 72.9467 226.15 71.6533 225.163 70C224.203 68.32 223.723 66.4267 223.723 64.32C223.723 62.24 224.19 60.3733 225.123 58.72C226.083 57.04 227.403 55.7333 229.083 54.8C230.763 53.8667 232.656 53.4 234.763 53.4C236.843 53.4 238.696 53.8667 240.323 54.8C241.976 55.7067 243.256 57 244.163 58.68C245.096 60.3333 245.563 62.2533 245.563 64.44ZM234.763 57.4C233.163 57.4 231.803 57.88 230.683 58.84C229.59 59.7733 228.923 61.0267 228.683 62.6H240.803C240.59 61.0533 239.936 59.8 238.843 58.84C237.75 57.88 236.39 57.4 234.763 57.4ZM270.446 64.44C270.446 64.7867 270.419 65.28 270.366 65.92H253.606C253.899 67.4933 254.659 68.7467 255.886 69.68C257.139 70.5867 258.686 71.04 260.526 71.04C262.873 71.04 264.806 70.2667 266.326 68.72L269.006 71.8C268.046 72.9467 266.833 73.8133 265.366 74.4C263.899 74.9867 262.246 75.28 260.406 75.28C258.059 75.28 255.993 74.8133 254.206 73.88C252.419 72.9467 251.033 71.6533 250.046 70C249.086 68.32 248.606 66.4267 248.606 64.32C248.606 62.24 249.073 60.3733 250.006 58.72C250.966 57.04 252.286 55.7333 253.966 54.8C255.646 53.8667 257.539 53.4 259.646 53.4C261.726 53.4 263.579 53.8667 265.206 54.8C266.859 55.7067 268.139 57 269.046 58.68C269.979 60.3333 270.446 62.2533 270.446 64.44ZM259.646 57.4C258.046 57.4 256.686 57.88 255.566 58.84C254.473 59.7733 253.806 61.0267 253.566 62.6H265.686C265.473 61.0533 264.819 59.8 263.726 58.84C262.633 57.88 261.273 57.4 259.646 57.4ZM275.249 45.32H280.249V75H275.249V45.32ZM293.411 75.28C291.678 75.28 289.985 75.0533 288.331 74.6C286.678 74.1467 285.358 73.5733 284.371 72.88L286.291 69.08C287.251 69.72 288.398 70.24 289.731 70.64C291.091 71.0133 292.425 71.2 293.731 71.2C296.718 71.2 298.211 70.4133 298.211 68.84C298.211 68.0933 297.825 67.5733 297.051 67.28C296.305 66.9867 295.091 66.7067 293.411 66.44C291.651 66.1733 290.211 65.8667 289.091 65.52C287.998 65.1733 287.038 64.5733 286.211 63.72C285.411 62.84 285.011 61.6267 285.011 60.08C285.011 58.0533 285.851 56.44 287.531 55.24C289.238 54.0133 291.531 53.4 294.411 53.4C295.878 53.4 297.345 53.5733 298.811 53.92C300.278 54.24 301.478 54.68 302.411 55.24L300.491 59.04C298.678 57.9733 296.638 57.44 294.371 57.44C292.905 57.44 291.785 57.6667 291.011 58.12C290.265 58.5467 289.891 59.12 289.891 59.84C289.891 60.64 290.291 61.2133 291.091 61.56C291.918 61.88 293.185 62.1867 294.891 62.48C296.598 62.7467 297.998 63.0533 299.091 63.4C300.185 63.7467 301.118 64.3333 301.891 65.16C302.691 65.9867 303.091 67.16 303.091 68.68C303.091 70.68 302.225 72.28 300.491 73.48C298.758 74.68 296.398 75.28 293.411 75.28Z" fill="#262527"/>
<defs>
<filter id="filter0_d" x="0" y="0" width="51" height="84" filterUnits="userSpaceOnUse" color-interpolation-filters="sRGB">
<feFlood flood-opacity="0" result="BackgroundImageFix"/>
<feColorMatrix in="SourceAlpha" type="matrix" values="0 0 0 0 0 0 0 0 0 0 0 0 0 0 0 0 0 0 127 0"/>
<feOffset dy="1"/>
<feGaussianBlur stdDeviation="1"/>
<feColorMatrix type="matrix" values="0 0 0 0 1 0 0 0 0 0.14902 0 0 0 0 0.556863 0 0 0 0.3 0"/>
<feBlend mode="normal" in2="BackgroundImageFix" result="effect1_dropShadow"/>
<feBlend mode="normal" in="SourceGraphic" in2="effect1_dropShadow" result="shape"/>
</filter>
<filter id="filter1_d" x="52.3025" y="47.72" width="87.4447" height="30.6" filterUnits="userSpaceOnUse" color-interpolation-filters="sRGB">
<feFlood flood-opacity="0" result="BackgroundImageFix"/>
<feColorMatrix in="SourceAlpha" type="matrix" values="0 0 0 0 0 0 0 0 0 0 0 0 0 0 0 0 0 0 127 0"/>
<feOffset dy="1"/>
<feGaussianBlur stdDeviation="1"/>
<feColorMatrix type="matrix" values="0 0 0 0 1 0 0 0 0 0.14902 0 0 0 0 0.556863 0 0 0 0.3 0"/>
<feBlend mode="normal" in2="BackgroundImageFix" result="effect1_dropShadow"/>
<feBlend mode="normal" in="SourceGraphic" in2="effect1_dropShadow" result="shape"/>
</filter>
</defs>
</svg>
