<svg width="1413" height="1288" viewBox="0 0 1413 1288" fill="none" xmlns="http://www.w3.org/2000/svg">
<g filter="url(#filter0_d)">
<path d="M298.752 1206.81C353.988 1324.91 122.599 1132.38 0 1021.35L0 464.061L780.74 464.061C1130.17 462.523 1706.21 493.217 1214.93 628.296C723.645 763.375 779.633 809.447 869.038 815.598C993.186 824.056 1164.54 838.984 918.616 891.906C699.535 939.051 798.886 976.296 855.096 1001.52C1078.39 1119.77 1419.54 1315.96 997.833 1154.68C576.127 993.396 526.026 1018.59 553.688 1051.34C651.944 1172.67 800.258 1377.6 607.463 1226.65C414.668 1075.7 338.83 1063.72 318.669 1062.41C289.015 1061.34 243.516 1088.71 298.752 1206.81Z" fill="#F2FBFD"/>
</g>
<g filter="url(#filter1_d)">
<path d="M-0.172997 -8.07884C-3.86563 -9.74328 -4.01826 -11.8571 -0.173005 -14.4964L-0.172997 -8.07884C50.1197 14.5904 757.074 -46.0951 963.92 2.30182C1185.95 54.2522 993.135 93.1208 868.972 106.061C779.557 115.473 723.561 185.963 1214.9 392.635C1706.25 599.308 1130.14 646.27 780.663 643.917H-0.172144L-0.172997 -8.07884Z" fill="#F2FBFD"/>
</g>
<path d="M1195.66 633.52C1200.66 632.563 1289.55 607.683 1329 591.893L624.856 633.52C612.205 632.244 593.195 635.147 618.364 656.965C643.533 678.783 1016.41 667.867 1195.66 633.52Z" fill="#F2FBFD"/>
<rect y="602" width="621" height="97" fill="#F2FBFD"/>
<defs>
<filter id="filter0_d" x="-4" y="464.007" width="1413" height="823.993" filterUnits="userSpaceOnUse" color-interpolation-filters="sRGB">
<feFlood flood-opacity="0" result="BackgroundImageFix"/>
<feColorMatrix in="SourceAlpha" type="matrix" values="0 0 0 0 0 0 0 0 0 0 0 0 0 0 0 0 0 0 127 0"/>
<feOffset dy="4"/>
<feGaussianBlur stdDeviation="2"/>
<feColorMatrix type="matrix" values="0 0 0 0 0.0196078 0 0 0 0 0.196078 0 0 0 0 0.309804 0 0 0 1 0"/>
<feBlend mode="normal" in2="BackgroundImageFix" result="effect1_dropShadow"/>
<feBlend mode="normal" in="SourceGraphic" in2="effect1_dropShadow" result="shape"/>
</filter>
<filter id="filter1_d" x="-3" y="-17" width="1416" height="669" filterUnits="userSpaceOnUse" color-interpolation-filters="sRGB">
<feFlood flood-opacity="0" result="BackgroundImageFix"/>
<feColorMatrix in="SourceAlpha" type="matrix" values="0 0 0 0 0 0 0 0 0 0 0 0 0 0 0 0 0 0 127 0"/>
<feOffset dx="4" dy="4"/>
<feGaussianBlur stdDeviation="2"/>
<feColorMatrix type="matrix" values="0 0 0 0 0.0196078 0 0 0 0 0.196078 0 0 0 0 0.309804 0 0 0 1 0"/>
<feBlend mode="normal" in2="BackgroundImageFix" result="effect1_dropShadow"/>
<feBlend mode="normal" in="SourceGraphic" in2="effect1_dropShadow" result="shape"/>
</filter>
</defs>
</svg>
