<svg width="497" height="905" viewBox="0 0 497 905" fill="none" xmlns="http://www.w3.org/2000/svg">
<g filter="url(#filter0_d)">
<path d="M474.611 46.3876C473.462 48.4172 470.538 48.4172 469.389 46.3876L452.884 17.2278C451.752 15.2279 453.197 12.75 455.495 12.75L488.505 12.75C490.803 12.75 492.248 15.2279 491.116 17.2278L474.611 46.3876Z" fill="#DF2A61"/>
</g>
<g filter="url(#filter1_d)">
<path d="M272.611 783.388C271.462 785.417 268.538 785.417 267.389 783.388L250.884 754.228C249.752 752.228 251.197 749.75 253.495 749.75H286.505C288.803 749.75 290.248 752.228 289.116 754.228L272.611 783.388Z" fill="#DF2A61"/>
</g>
<g filter="url(#filter2_d)">
<path d="M344.611 895.388C343.462 897.417 340.538 897.417 339.389 895.388L322.884 866.228C321.752 864.228 323.197 861.75 325.495 861.75H358.505C360.803 861.75 362.248 864.228 361.116 866.228L344.611 895.388Z" fill="#05324F"/>
</g>
<g filter="url(#filter3_d)">
<path d="M337.611 635.388C336.462 637.417 333.538 637.417 332.389 635.388L315.884 606.228C314.752 604.228 316.197 601.75 318.495 601.75H351.505C353.803 601.75 355.248 604.228 354.116 606.228L337.611 635.388Z" fill="#05324F"/>
</g>
<g filter="url(#filter4_d)">
<path d="M305.127 98.2407C303.986 100.308 301.014 100.308 299.873 98.2407L276.81 56.4495C275.706 54.4501 277.153 52 279.436 52L325.564 52C327.847 52 329.294 54.4501 328.19 56.4495L305.127 98.2407Z" fill="#F8981C"/>
</g>
<g filter="url(#filter5_d)">
<path d="M395.127 222.241C393.986 224.308 391.014 224.308 389.873 222.241L366.81 180.45C365.706 178.45 367.153 176 369.436 176H415.564C417.847 176 419.294 178.45 418.19 180.45L395.127 222.241Z" fill="#05324F"/>
</g>
<g filter="url(#filter6_d)">
<path d="M280.623 317.275C279.48 319.334 276.52 319.334 275.377 317.275L258.823 287.456C257.713 285.457 259.159 283 261.446 283H294.554C296.841 283 298.287 285.457 297.177 287.456L280.623 317.275Z" fill="#05324F"/>
</g>
<g filter="url(#filter7_d)">
<path d="M449.117 403.327C447.972 405.372 445.028 405.372 443.883 403.327L420.856 362.216C419.736 360.216 421.181 357.75 423.473 357.75H469.527C471.819 357.75 473.264 360.216 472.144 362.216L449.117 403.327Z" fill="#DF2A61"/>
</g>
<g filter="url(#filter8_d)">
<path d="M338.127 541.241C336.986 543.308 334.014 543.308 332.873 541.241L309.81 499.45C308.706 497.45 310.153 495 312.436 495H358.564C360.847 495 362.294 497.45 361.19 499.45L338.127 541.241Z" fill="#A6D046"/>
</g>
<g filter="url(#filter9_d)">
<path d="M450.117 669.327C448.972 671.372 446.028 671.372 444.883 669.327L421.856 628.216C420.736 626.216 422.181 623.75 424.473 623.75H470.527C472.819 623.75 474.264 626.216 473.144 628.216L450.117 669.327Z" fill="#F8981C"/>
</g>
<g filter="url(#filter10_d)">
<path d="M395.611 775.388C394.462 777.417 391.538 777.417 390.389 775.388L373.884 746.228C372.752 744.228 374.197 741.75 376.495 741.75H409.505C411.803 741.75 413.248 744.228 412.116 746.228L395.611 775.388Z" fill="#F8981C"/>
</g>
<g filter="url(#filter11_d)">
<path d="M134.611 317.388C133.462 319.417 130.538 319.417 129.389 317.388L112.884 288.228C111.752 286.228 113.197 283.75 115.495 283.75H148.505C150.803 283.75 152.248 286.228 151.116 288.228L134.611 317.388Z" fill="#F8981C"/>
</g>
<g filter="url(#filter12_d)">
<path d="M320.116 705.339C318.97 707.382 316.03 707.382 314.884 705.339L304.853 687.468C303.73 685.469 305.176 683 307.469 683H327.531C329.824 683 331.27 685.469 330.147 687.468L320.116 705.339Z" fill="#DF2A61"/>
</g>
<g filter="url(#filter13_d)">
<path d="M468.116 834.339C466.97 836.382 464.03 836.382 462.884 834.339L452.853 816.468C451.73 814.469 453.176 812 455.469 812H475.531C477.824 812 479.27 814.469 478.147 816.468L468.116 834.339Z" fill="#A6D046"/>
</g>
<g filter="url(#filter14_d)">
<path d="M445.116 577.339C443.97 579.382 441.03 579.382 439.884 577.339L429.853 559.468C428.73 557.469 430.176 555 432.469 555H452.531C454.824 555 456.27 557.469 455.147 559.468L445.116 577.339Z" fill="#05324F"/>
</g>
<g filter="url(#filter15_d)">
<path d="M204.116 127.339C202.97 129.382 200.03 129.382 198.884 127.339L188.853 109.468C187.73 107.469 189.176 105 191.469 105H211.531C213.824 105 215.27 107.469 214.147 109.468L204.116 127.339Z" fill="#05324F"/>
</g>
<g filter="url(#filter16_d)">
<path d="M337.149 415.019C336.02 417.141 332.98 417.141 331.851 415.019L321.689 395.909C320.626 393.91 322.075 391.5 324.338 391.5H344.662C346.925 391.5 348.374 393.91 347.311 395.909L337.149 415.019Z" fill="#F8981C"/>
</g>
<g filter="url(#filter17_d)">
<path d="M482.149 140.019C481.02 142.141 477.98 142.141 476.851 140.019L466.689 120.909C465.626 118.91 467.075 116.5 469.338 116.5H489.662C491.925 116.5 493.374 118.91 492.311 120.909L482.149 140.019Z" fill="#F8981C"/>
</g>
<g filter="url(#filter18_d)">
<path d="M468.098 265.5C466.943 267.5 464.057 267.5 462.902 265.5L452.943 248.25C451.788 246.25 453.231 243.75 455.541 243.75H475.459C477.769 243.75 479.212 246.25 478.057 248.25L468.098 265.5Z" fill="#DF2A61"/>
</g>
<g filter="url(#filter19_d)">
<path d="M388.116 82.3394C386.97 84.3815 384.03 84.3815 382.884 82.3394L372.853 64.4684C371.73 62.4686 373.176 60 375.469 60H395.531C397.824 60 399.27 62.4686 398.147 64.4684L388.116 82.3394Z" fill="#A6D046"/>
</g>
<g filter="url(#filter20_d)">
<path d="M221.611 46.3876C220.462 48.4172 217.538 48.4172 216.389 46.3876L199.884 17.2278C198.752 15.2279 200.197 12.75 202.495 12.75L235.505 12.75C237.803 12.75 239.248 15.2279 238.116 17.2278L221.611 46.3876Z" fill="#DF2A61"/>
</g>
<g filter="url(#filter21_d)">
<path d="M91.6108 895.388C90.462 897.417 87.538 897.417 86.3892 895.388L69.8839 866.228C68.7519 864.228 70.1967 861.75 72.4947 861.75H105.505C107.803 861.75 109.248 864.228 108.116 866.228L91.6108 895.388Z" fill="#05324F"/>
</g>
<g filter="url(#filter22_d)">
<path d="M40.1266 109.241C38.9857 111.308 36.0143 111.308 34.8734 109.241L11.8098 67.4495C10.7063 65.4501 12.1526 63 14.4363 63L60.5637 63C62.8474 63 64.2937 65.4501 63.1902 67.4495L40.1266 109.241Z" fill="#F8981C"/>
</g>
<g filter="url(#filter23_d)">
<path d="M142.127 222.241C140.986 224.308 138.014 224.308 136.873 222.241L113.81 180.45C112.706 178.45 114.153 176 116.436 176H162.564C164.847 176 166.294 178.45 165.19 180.45L142.127 222.241Z" fill="#05324F"/>
</g>
<g filter="url(#filter24_d)">
<path d="M27.6229 317.275C26.4802 319.334 23.5198 319.334 22.3771 317.275L5.82315 287.456C4.71309 285.457 6.15904 283 8.44608 283H41.5539C43.841 283 45.2869 285.457 44.1769 287.456L27.6229 317.275Z" fill="#05324F"/>
</g>
<g filter="url(#filter25_d)">
<path d="M470.623 492.275C469.48 494.334 466.52 494.334 465.377 492.275L448.823 462.456C447.713 460.457 449.159 458 451.446 458H484.554C486.841 458 488.287 460.457 487.177 462.456L470.623 492.275Z" fill="#05324F"/>
</g>
<g filter="url(#filter26_d)">
<path d="M196.117 403.327C194.972 405.372 192.028 405.372 190.883 403.327L167.856 362.216C166.736 360.216 168.181 357.75 170.473 357.75H216.527C218.819 357.75 220.264 360.216 219.144 362.216L196.117 403.327Z" fill="#DF2A61"/>
</g>
<g filter="url(#filter27_d)">
<path d="M85.1266 541.241C83.9857 543.308 81.0143 543.308 79.8734 541.241L56.8098 499.45C55.7063 497.45 57.1526 495 59.4363 495H105.564C107.847 495 109.294 497.45 108.19 499.45L85.1266 541.241Z" fill="#A6D046"/>
</g>
<g filter="url(#filter28_d)">
<path d="M197.117 669.327C195.972 671.372 193.028 671.372 191.883 669.327L168.856 628.216C167.736 626.216 169.181 623.75 171.473 623.75H217.527C219.819 623.75 221.264 626.216 220.144 628.216L197.117 669.327Z" fill="#F8981C"/>
</g>
<g filter="url(#filter29_d)">
<path d="M142.611 775.388C141.462 777.417 138.538 777.417 137.389 775.388L120.884 746.228C119.752 744.228 121.197 741.75 123.495 741.75H156.505C158.803 741.75 160.248 744.228 159.116 746.228L142.611 775.388Z" fill="#F8981C"/>
</g>
<g filter="url(#filter30_d)">
<path d="M67.1161 705.339C65.9698 707.382 63.0302 707.382 61.8839 705.339L51.8527 687.468C50.7302 685.469 52.1755 683 54.4688 683H74.5312C76.8245 683 78.2698 685.469 77.1473 687.468L67.1161 705.339Z" fill="#DF2A61"/>
</g>
<g filter="url(#filter31_d)">
<path d="M215.116 834.339C213.97 836.382 211.03 836.382 209.884 834.339L199.853 816.468C198.73 814.469 200.176 812 202.469 812H222.531C224.824 812 226.27 814.469 225.147 816.468L215.116 834.339Z" fill="#A6D046"/>
</g>
<g filter="url(#filter32_d)">
<path d="M192.116 577.339C190.97 579.382 188.03 579.382 186.884 577.339L176.853 559.468C175.73 557.469 177.176 555 179.469 555H199.531C201.824 555 203.27 557.469 202.147 559.468L192.116 577.339Z" fill="#05324F"/>
</g>
<g filter="url(#filter33_d)">
<path d="M84.1488 415.019C83.0204 417.141 79.9796 417.141 78.8512 415.019L68.6889 395.909C67.6263 393.91 69.0745 391.5 71.3377 391.5H91.6623C93.9255 391.5 95.3737 393.91 94.3111 395.909L84.1488 415.019Z" fill="#F8981C"/>
</g>
<g filter="url(#filter34_d)">
<path d="M215.098 265.5C213.943 267.5 211.057 267.5 209.902 265.5L199.943 248.25C198.788 246.25 200.231 243.75 202.541 243.75H222.459C224.769 243.75 226.212 246.25 225.057 248.25L215.098 265.5Z" fill="#DF2A61"/>
</g>
<g filter="url(#filter35_d)">
<path d="M134.116 70.3394C132.97 72.3815 130.03 72.3815 128.884 70.3394L118.853 52.4684C117.73 50.4686 119.176 48 121.469 48H141.531C143.824 48 145.27 50.4686 144.147 52.4684L134.116 70.3394Z" fill="#A6D046"/>
</g>
<defs>
<filter id="filter0_d" x="448.49" y="12.75" width="47.0194" height="43.1598" filterUnits="userSpaceOnUse" color-interpolation-filters="sRGB">
<feFlood flood-opacity="0" result="BackgroundImageFix"/>
<feColorMatrix in="SourceAlpha" type="matrix" values="0 0 0 0 0 0 0 0 0 0 0 0 0 0 0 0 0 0 127 0"/>
<feOffset dy="4"/>
<feGaussianBlur stdDeviation="2"/>
<feColorMatrix type="matrix" values="0 0 0 0 0.87451 0 0 0 0 0.164706 0 0 0 0 0.380392 0 0 0 0.24 0"/>
<feBlend mode="normal" in2="BackgroundImageFix" result="effect1_dropShadow"/>
<feBlend mode="normal" in="SourceGraphic" in2="effect1_dropShadow" result="shape"/>
</filter>
<filter id="filter1_d" x="246.49" y="749.75" width="47.0194" height="43.1598" filterUnits="userSpaceOnUse" color-interpolation-filters="sRGB">
<feFlood flood-opacity="0" result="BackgroundImageFix"/>
<feColorMatrix in="SourceAlpha" type="matrix" values="0 0 0 0 0 0 0 0 0 0 0 0 0 0 0 0 0 0 127 0"/>
<feOffset dy="4"/>
<feGaussianBlur stdDeviation="2"/>
<feColorMatrix type="matrix" values="0 0 0 0 0.87451 0 0 0 0 0.164706 0 0 0 0 0.380392 0 0 0 0.24 0"/>
<feBlend mode="normal" in2="BackgroundImageFix" result="effect1_dropShadow"/>
<feBlend mode="normal" in="SourceGraphic" in2="effect1_dropShadow" result="shape"/>
</filter>
<filter id="filter2_d" x="318.49" y="861.75" width="47.0194" height="43.1598" filterUnits="userSpaceOnUse" color-interpolation-filters="sRGB">
<feFlood flood-opacity="0" result="BackgroundImageFix"/>
<feColorMatrix in="SourceAlpha" type="matrix" values="0 0 0 0 0 0 0 0 0 0 0 0 0 0 0 0 0 0 127 0"/>
<feOffset dy="4"/>
<feGaussianBlur stdDeviation="2"/>
<feColorMatrix type="matrix" values="0 0 0 0 0.0196078 0 0 0 0 0.196078 0 0 0 0 0.309804 0 0 0 0.25 0"/>
<feBlend mode="normal" in2="BackgroundImageFix" result="effect1_dropShadow"/>
<feBlend mode="normal" in="SourceGraphic" in2="effect1_dropShadow" result="shape"/>
</filter>
<filter id="filter3_d" x="311.49" y="601.75" width="47.0194" height="43.1598" filterUnits="userSpaceOnUse" color-interpolation-filters="sRGB">
<feFlood flood-opacity="0" result="BackgroundImageFix"/>
<feColorMatrix in="SourceAlpha" type="matrix" values="0 0 0 0 0 0 0 0 0 0 0 0 0 0 0 0 0 0 127 0"/>
<feOffset dy="4"/>
<feGaussianBlur stdDeviation="2"/>
<feColorMatrix type="matrix" values="0 0 0 0 0.0196078 0 0 0 0 0.196078 0 0 0 0 0.309804 0 0 0 0.25 0"/>
<feBlend mode="normal" in2="BackgroundImageFix" result="effect1_dropShadow"/>
<feBlend mode="normal" in="SourceGraphic" in2="effect1_dropShadow" result="shape"/>
</filter>
<filter id="filter4_d" x="272.432" y="52" width="60.1359" height="55.7912" filterUnits="userSpaceOnUse" color-interpolation-filters="sRGB">
<feFlood flood-opacity="0" result="BackgroundImageFix"/>
<feColorMatrix in="SourceAlpha" type="matrix" values="0 0 0 0 0 0 0 0 0 0 0 0 0 0 0 0 0 0 127 0"/>
<feOffset dy="4"/>
<feGaussianBlur stdDeviation="2"/>
<feColorMatrix type="matrix" values="0 0 0 0 0.972549 0 0 0 0 0.596078 0 0 0 0 0.109804 0 0 0 0.25 0"/>
<feBlend mode="normal" in2="BackgroundImageFix" result="effect1_dropShadow"/>
<feBlend mode="normal" in="SourceGraphic" in2="effect1_dropShadow" result="shape"/>
</filter>
<filter id="filter5_d" x="362.432" y="176" width="60.1359" height="55.7912" filterUnits="userSpaceOnUse" color-interpolation-filters="sRGB">
<feFlood flood-opacity="0" result="BackgroundImageFix"/>
<feColorMatrix in="SourceAlpha" type="matrix" values="0 0 0 0 0 0 0 0 0 0 0 0 0 0 0 0 0 0 127 0"/>
<feOffset dy="4"/>
<feGaussianBlur stdDeviation="2"/>
<feColorMatrix type="matrix" values="0 0 0 0 0.0196078 0 0 0 0 0.196078 0 0 0 0 0.309804 0 0 0 0.25 0"/>
<feBlend mode="normal" in2="BackgroundImageFix" result="effect1_dropShadow"/>
<feBlend mode="normal" in="SourceGraphic" in2="effect1_dropShadow" result="shape"/>
</filter>
<filter id="filter6_d" x="254.442" y="283" width="47.1165" height="43.8191" filterUnits="userSpaceOnUse" color-interpolation-filters="sRGB">
<feFlood flood-opacity="0" result="BackgroundImageFix"/>
<feColorMatrix in="SourceAlpha" type="matrix" values="0 0 0 0 0 0 0 0 0 0 0 0 0 0 0 0 0 0 127 0"/>
<feOffset dy="4"/>
<feGaussianBlur stdDeviation="2"/>
<feColorMatrix type="matrix" values="0 0 0 0 0.0196078 0 0 0 0 0.196078 0 0 0 0 0.309804 0 0 0 0.25 0"/>
<feBlend mode="normal" in2="BackgroundImageFix" result="effect1_dropShadow"/>
<feBlend mode="normal" in="SourceGraphic" in2="effect1_dropShadow" result="shape"/>
</filter>
<filter id="filter7_d" x="416.469" y="357.75" width="60.0626" height="55.111" filterUnits="userSpaceOnUse" color-interpolation-filters="sRGB">
<feFlood flood-opacity="0" result="BackgroundImageFix"/>
<feColorMatrix in="SourceAlpha" type="matrix" values="0 0 0 0 0 0 0 0 0 0 0 0 0 0 0 0 0 0 127 0"/>
<feOffset dy="4"/>
<feGaussianBlur stdDeviation="2"/>
<feColorMatrix type="matrix" values="0 0 0 0 0.87451 0 0 0 0 0.164706 0 0 0 0 0.380392 0 0 0 0.25 0"/>
<feBlend mode="normal" in2="BackgroundImageFix" result="effect1_dropShadow"/>
<feBlend mode="normal" in="SourceGraphic" in2="effect1_dropShadow" result="shape"/>
</filter>
<filter id="filter8_d" x="305.432" y="495" width="60.1359" height="55.7912" filterUnits="userSpaceOnUse" color-interpolation-filters="sRGB">
<feFlood flood-opacity="0" result="BackgroundImageFix"/>
<feColorMatrix in="SourceAlpha" type="matrix" values="0 0 0 0 0 0 0 0 0 0 0 0 0 0 0 0 0 0 127 0"/>
<feOffset dy="4"/>
<feGaussianBlur stdDeviation="2"/>
<feColorMatrix type="matrix" values="0 0 0 0 0.65098 0 0 0 0 0.815686 0 0 0 0 0.27451 0 0 0 0.25 0"/>
<feBlend mode="normal" in2="BackgroundImageFix" result="effect1_dropShadow"/>
<feBlend mode="normal" in="SourceGraphic" in2="effect1_dropShadow" result="shape"/>
</filter>
<filter id="filter9_d" x="417.469" y="623.75" width="60.0626" height="55.111" filterUnits="userSpaceOnUse" color-interpolation-filters="sRGB">
<feFlood flood-opacity="0" result="BackgroundImageFix"/>
<feColorMatrix in="SourceAlpha" type="matrix" values="0 0 0 0 0 0 0 0 0 0 0 0 0 0 0 0 0 0 127 0"/>
<feOffset dy="4"/>
<feGaussianBlur stdDeviation="2"/>
<feColorMatrix type="matrix" values="0 0 0 0 0.972549 0 0 0 0 0.596078 0 0 0 0 0.109804 0 0 0 0.25 0"/>
<feBlend mode="normal" in2="BackgroundImageFix" result="effect1_dropShadow"/>
<feBlend mode="normal" in="SourceGraphic" in2="effect1_dropShadow" result="shape"/>
</filter>
<filter id="filter10_d" x="369.49" y="741.75" width="47.0194" height="43.1598" filterUnits="userSpaceOnUse" color-interpolation-filters="sRGB">
<feFlood flood-opacity="0" result="BackgroundImageFix"/>
<feColorMatrix in="SourceAlpha" type="matrix" values="0 0 0 0 0 0 0 0 0 0 0 0 0 0 0 0 0 0 127 0"/>
<feOffset dy="4"/>
<feGaussianBlur stdDeviation="2"/>
<feColorMatrix type="matrix" values="0 0 0 0 0.972549 0 0 0 0 0.596078 0 0 0 0 0.109804 0 0 0 0.25 0"/>
<feBlend mode="normal" in2="BackgroundImageFix" result="effect1_dropShadow"/>
<feBlend mode="normal" in="SourceGraphic" in2="effect1_dropShadow" result="shape"/>
</filter>
<filter id="filter11_d" x="108.49" y="283.75" width="47.0194" height="43.1598" filterUnits="userSpaceOnUse" color-interpolation-filters="sRGB">
<feFlood flood-opacity="0" result="BackgroundImageFix"/>
<feColorMatrix in="SourceAlpha" type="matrix" values="0 0 0 0 0 0 0 0 0 0 0 0 0 0 0 0 0 0 127 0"/>
<feOffset dy="4"/>
<feGaussianBlur stdDeviation="2"/>
<feColorMatrix type="matrix" values="0 0 0 0 0.972549 0 0 0 0 0.596078 0 0 0 0 0.109804 0 0 0 0.25 0"/>
<feBlend mode="normal" in2="BackgroundImageFix" result="effect1_dropShadow"/>
<feBlend mode="normal" in="SourceGraphic" in2="effect1_dropShadow" result="shape"/>
</filter>
<filter id="filter12_d" x="300.464" y="683" width="34.0711" height="31.871" filterUnits="userSpaceOnUse" color-interpolation-filters="sRGB">
<feFlood flood-opacity="0" result="BackgroundImageFix"/>
<feColorMatrix in="SourceAlpha" type="matrix" values="0 0 0 0 0 0 0 0 0 0 0 0 0 0 0 0 0 0 127 0"/>
<feOffset dy="4"/>
<feGaussianBlur stdDeviation="2"/>
<feColorMatrix type="matrix" values="0 0 0 0 0.87451 0 0 0 0 0.164706 0 0 0 0 0.380392 0 0 0 0.25 0"/>
<feBlend mode="normal" in2="BackgroundImageFix" result="effect1_dropShadow"/>
<feBlend mode="normal" in="SourceGraphic" in2="effect1_dropShadow" result="shape"/>
</filter>
<filter id="filter13_d" x="448.464" y="812" width="34.0711" height="31.871" filterUnits="userSpaceOnUse" color-interpolation-filters="sRGB">
<feFlood flood-opacity="0" result="BackgroundImageFix"/>
<feColorMatrix in="SourceAlpha" type="matrix" values="0 0 0 0 0 0 0 0 0 0 0 0 0 0 0 0 0 0 127 0"/>
<feOffset dy="4"/>
<feGaussianBlur stdDeviation="2"/>
<feColorMatrix type="matrix" values="0 0 0 0 0.65098 0 0 0 0 0.815686 0 0 0 0 0.27451 0 0 0 0.25 0"/>
<feBlend mode="normal" in2="BackgroundImageFix" result="effect1_dropShadow"/>
<feBlend mode="normal" in="SourceGraphic" in2="effect1_dropShadow" result="shape"/>
</filter>
<filter id="filter14_d" x="425.464" y="555" width="34.0711" height="31.871" filterUnits="userSpaceOnUse" color-interpolation-filters="sRGB">
<feFlood flood-opacity="0" result="BackgroundImageFix"/>
<feColorMatrix in="SourceAlpha" type="matrix" values="0 0 0 0 0 0 0 0 0 0 0 0 0 0 0 0 0 0 127 0"/>
<feOffset dy="4"/>
<feGaussianBlur stdDeviation="2"/>
<feColorMatrix type="matrix" values="0 0 0 0 0.0196078 0 0 0 0 0.196078 0 0 0 0 0.309804 0 0 0 0.25 0"/>
<feBlend mode="normal" in2="BackgroundImageFix" result="effect1_dropShadow"/>
<feBlend mode="normal" in="SourceGraphic" in2="effect1_dropShadow" result="shape"/>
</filter>
<filter id="filter15_d" x="184.464" y="105" width="34.0711" height="31.871" filterUnits="userSpaceOnUse" color-interpolation-filters="sRGB">
<feFlood flood-opacity="0" result="BackgroundImageFix"/>
<feColorMatrix in="SourceAlpha" type="matrix" values="0 0 0 0 0 0 0 0 0 0 0 0 0 0 0 0 0 0 127 0"/>
<feOffset dy="4"/>
<feGaussianBlur stdDeviation="2"/>
<feColorMatrix type="matrix" values="0 0 0 0 0.0196078 0 0 0 0 0.196078 0 0 0 0 0.309804 0 0 0 0.25 0"/>
<feBlend mode="normal" in2="BackgroundImageFix" result="effect1_dropShadow"/>
<feBlend mode="normal" in="SourceGraphic" in2="effect1_dropShadow" result="shape"/>
</filter>
<filter id="filter16_d" x="317.334" y="391.5" width="34.3329" height="33.1104" filterUnits="userSpaceOnUse" color-interpolation-filters="sRGB">
<feFlood flood-opacity="0" result="BackgroundImageFix"/>
<feColorMatrix in="SourceAlpha" type="matrix" values="0 0 0 0 0 0 0 0 0 0 0 0 0 0 0 0 0 0 127 0"/>
<feOffset dy="4"/>
<feGaussianBlur stdDeviation="2"/>
<feColorMatrix type="matrix" values="0 0 0 0 0.972549 0 0 0 0 0.596078 0 0 0 0 0.109804 0 0 0 0.25 0"/>
<feBlend mode="normal" in2="BackgroundImageFix" result="effect1_dropShadow"/>
<feBlend mode="normal" in="SourceGraphic" in2="effect1_dropShadow" result="shape"/>
</filter>
<filter id="filter17_d" x="462.333" y="116.5" width="34.3329" height="33.1104" filterUnits="userSpaceOnUse" color-interpolation-filters="sRGB">
<feFlood flood-opacity="0" result="BackgroundImageFix"/>
<feColorMatrix in="SourceAlpha" type="matrix" values="0 0 0 0 0 0 0 0 0 0 0 0 0 0 0 0 0 0 127 0"/>
<feOffset dy="4"/>
<feGaussianBlur stdDeviation="2"/>
<feColorMatrix type="matrix" values="0 0 0 0 0.972549 0 0 0 0 0.596078 0 0 0 0 0.109804 0 0 0 0.25 0"/>
<feBlend mode="normal" in2="BackgroundImageFix" result="effect1_dropShadow"/>
<feBlend mode="normal" in="SourceGraphic" in2="effect1_dropShadow" result="shape"/>
</filter>
<filter id="filter18_d" x="448.536" y="243.75" width="33.9275" height="31.25" filterUnits="userSpaceOnUse" color-interpolation-filters="sRGB">
<feFlood flood-opacity="0" result="BackgroundImageFix"/>
<feColorMatrix in="SourceAlpha" type="matrix" values="0 0 0 0 0 0 0 0 0 0 0 0 0 0 0 0 0 0 127 0"/>
<feOffset dy="4"/>
<feGaussianBlur stdDeviation="2"/>
<feColorMatrix type="matrix" values="0 0 0 0 0.87451 0 0 0 0 0.164706 0 0 0 0 0.380392 0 0 0 0.25 0"/>
<feBlend mode="normal" in2="BackgroundImageFix" result="effect1_dropShadow"/>
<feBlend mode="normal" in="SourceGraphic" in2="effect1_dropShadow" result="shape"/>
</filter>
<filter id="filter19_d" x="368.464" y="60" width="34.0711" height="31.871" filterUnits="userSpaceOnUse" color-interpolation-filters="sRGB">
<feFlood flood-opacity="0" result="BackgroundImageFix"/>
<feColorMatrix in="SourceAlpha" type="matrix" values="0 0 0 0 0 0 0 0 0 0 0 0 0 0 0 0 0 0 127 0"/>
<feOffset dy="4"/>
<feGaussianBlur stdDeviation="2"/>
<feColorMatrix type="matrix" values="0 0 0 0 0.65098 0 0 0 0 0.815686 0 0 0 0 0.27451 0 0 0 0.25 0"/>
<feBlend mode="normal" in2="BackgroundImageFix" result="effect1_dropShadow"/>
<feBlend mode="normal" in="SourceGraphic" in2="effect1_dropShadow" result="shape"/>
</filter>
<filter id="filter20_d" x="195.49" y="12.75" width="47.0194" height="43.1598" filterUnits="userSpaceOnUse" color-interpolation-filters="sRGB">
<feFlood flood-opacity="0" result="BackgroundImageFix"/>
<feColorMatrix in="SourceAlpha" type="matrix" values="0 0 0 0 0 0 0 0 0 0 0 0 0 0 0 0 0 0 127 0"/>
<feOffset dy="4"/>
<feGaussianBlur stdDeviation="2"/>
<feColorMatrix type="matrix" values="0 0 0 0 0.87451 0 0 0 0 0.164706 0 0 0 0 0.380392 0 0 0 0.25 0"/>
<feBlend mode="normal" in2="BackgroundImageFix" result="effect1_dropShadow"/>
<feBlend mode="normal" in="SourceGraphic" in2="effect1_dropShadow" result="shape"/>
</filter>
<filter id="filter21_d" x="65.4903" y="861.75" width="47.0194" height="43.1598" filterUnits="userSpaceOnUse" color-interpolation-filters="sRGB">
<feFlood flood-opacity="0" result="BackgroundImageFix"/>
<feColorMatrix in="SourceAlpha" type="matrix" values="0 0 0 0 0 0 0 0 0 0 0 0 0 0 0 0 0 0 127 0"/>
<feOffset dy="4"/>
<feGaussianBlur stdDeviation="2"/>
<feColorMatrix type="matrix" values="0 0 0 0 0.0196078 0 0 0 0 0.196078 0 0 0 0 0.309804 0 0 0 0.25 0"/>
<feBlend mode="normal" in2="BackgroundImageFix" result="effect1_dropShadow"/>
<feBlend mode="normal" in="SourceGraphic" in2="effect1_dropShadow" result="shape"/>
</filter>
<filter id="filter22_d" x="7.43207" y="63" width="60.1359" height="55.7912" filterUnits="userSpaceOnUse" color-interpolation-filters="sRGB">
<feFlood flood-opacity="0" result="BackgroundImageFix"/>
<feColorMatrix in="SourceAlpha" type="matrix" values="0 0 0 0 0 0 0 0 0 0 0 0 0 0 0 0 0 0 127 0"/>
<feOffset dy="4"/>
<feGaussianBlur stdDeviation="2"/>
<feColorMatrix type="matrix" values="0 0 0 0 0.972549 0 0 0 0 0.596078 0 0 0 0 0.109804 0 0 0 0.25 0"/>
<feBlend mode="normal" in2="BackgroundImageFix" result="effect1_dropShadow"/>
<feBlend mode="normal" in="SourceGraphic" in2="effect1_dropShadow" result="shape"/>
</filter>
<filter id="filter23_d" x="109.432" y="176" width="60.1359" height="55.7912" filterUnits="userSpaceOnUse" color-interpolation-filters="sRGB">
<feFlood flood-opacity="0" result="BackgroundImageFix"/>
<feColorMatrix in="SourceAlpha" type="matrix" values="0 0 0 0 0 0 0 0 0 0 0 0 0 0 0 0 0 0 127 0"/>
<feOffset dy="4"/>
<feGaussianBlur stdDeviation="2"/>
<feColorMatrix type="matrix" values="0 0 0 0 0.0196078 0 0 0 0 0.196078 0 0 0 0 0.309804 0 0 0 0.25 0"/>
<feBlend mode="normal" in2="BackgroundImageFix" result="effect1_dropShadow"/>
<feBlend mode="normal" in="SourceGraphic" in2="effect1_dropShadow" result="shape"/>
</filter>
<filter id="filter24_d" x="1.44177" y="283" width="47.1165" height="43.8191" filterUnits="userSpaceOnUse" color-interpolation-filters="sRGB">
<feFlood flood-opacity="0" result="BackgroundImageFix"/>
<feColorMatrix in="SourceAlpha" type="matrix" values="0 0 0 0 0 0 0 0 0 0 0 0 0 0 0 0 0 0 127 0"/>
<feOffset dy="4"/>
<feGaussianBlur stdDeviation="2"/>
<feColorMatrix type="matrix" values="0 0 0 0 0.0196078 0 0 0 0 0.196078 0 0 0 0 0.309804 0 0 0 0.25 0"/>
<feBlend mode="normal" in2="BackgroundImageFix" result="effect1_dropShadow"/>
<feBlend mode="normal" in="SourceGraphic" in2="effect1_dropShadow" result="shape"/>
</filter>
<filter id="filter25_d" x="444.442" y="458" width="47.1165" height="43.8191" filterUnits="userSpaceOnUse" color-interpolation-filters="sRGB">
<feFlood flood-opacity="0" result="BackgroundImageFix"/>
<feColorMatrix in="SourceAlpha" type="matrix" values="0 0 0 0 0 0 0 0 0 0 0 0 0 0 0 0 0 0 127 0"/>
<feOffset dy="4"/>
<feGaussianBlur stdDeviation="2"/>
<feColorMatrix type="matrix" values="0 0 0 0 0.0196078 0 0 0 0 0.196078 0 0 0 0 0.309804 0 0 0 0.25 0"/>
<feBlend mode="normal" in2="BackgroundImageFix" result="effect1_dropShadow"/>
<feBlend mode="normal" in="SourceGraphic" in2="effect1_dropShadow" result="shape"/>
</filter>
<filter id="filter26_d" x="163.469" y="357.75" width="60.0626" height="55.111" filterUnits="userSpaceOnUse" color-interpolation-filters="sRGB">
<feFlood flood-opacity="0" result="BackgroundImageFix"/>
<feColorMatrix in="SourceAlpha" type="matrix" values="0 0 0 0 0 0 0 0 0 0 0 0 0 0 0 0 0 0 127 0"/>
<feOffset dy="4"/>
<feGaussianBlur stdDeviation="2"/>
<feColorMatrix type="matrix" values="0 0 0 0 0.87451 0 0 0 0 0.164706 0 0 0 0 0.380392 0 0 0 0.25 0"/>
<feBlend mode="normal" in2="BackgroundImageFix" result="effect1_dropShadow"/>
<feBlend mode="normal" in="SourceGraphic" in2="effect1_dropShadow" result="shape"/>
</filter>
<filter id="filter27_d" x="52.4321" y="495" width="60.1359" height="55.7912" filterUnits="userSpaceOnUse" color-interpolation-filters="sRGB">
<feFlood flood-opacity="0" result="BackgroundImageFix"/>
<feColorMatrix in="SourceAlpha" type="matrix" values="0 0 0 0 0 0 0 0 0 0 0 0 0 0 0 0 0 0 127 0"/>
<feOffset dy="4"/>
<feGaussianBlur stdDeviation="2"/>
<feColorMatrix type="matrix" values="0 0 0 0 0.65098 0 0 0 0 0.815686 0 0 0 0 0.27451 0 0 0 0.25 0"/>
<feBlend mode="normal" in2="BackgroundImageFix" result="effect1_dropShadow"/>
<feBlend mode="normal" in="SourceGraphic" in2="effect1_dropShadow" result="shape"/>
</filter>
<filter id="filter28_d" x="164.469" y="623.75" width="60.0626" height="55.111" filterUnits="userSpaceOnUse" color-interpolation-filters="sRGB">
<feFlood flood-opacity="0" result="BackgroundImageFix"/>
<feColorMatrix in="SourceAlpha" type="matrix" values="0 0 0 0 0 0 0 0 0 0 0 0 0 0 0 0 0 0 127 0"/>
<feOffset dy="4"/>
<feGaussianBlur stdDeviation="2"/>
<feColorMatrix type="matrix" values="0 0 0 0 0.972549 0 0 0 0 0.596078 0 0 0 0 0.109804 0 0 0 0.25 0"/>
<feBlend mode="normal" in2="BackgroundImageFix" result="effect1_dropShadow"/>
<feBlend mode="normal" in="SourceGraphic" in2="effect1_dropShadow" result="shape"/>
</filter>
<filter id="filter29_d" x="116.49" y="741.75" width="47.0194" height="43.1598" filterUnits="userSpaceOnUse" color-interpolation-filters="sRGB">
<feFlood flood-opacity="0" result="BackgroundImageFix"/>
<feColorMatrix in="SourceAlpha" type="matrix" values="0 0 0 0 0 0 0 0 0 0 0 0 0 0 0 0 0 0 127 0"/>
<feOffset dy="4"/>
<feGaussianBlur stdDeviation="2"/>
<feColorMatrix type="matrix" values="0 0 0 0 0.972549 0 0 0 0 0.596078 0 0 0 0 0.109804 0 0 0 0.25 0"/>
<feBlend mode="normal" in2="BackgroundImageFix" result="effect1_dropShadow"/>
<feBlend mode="normal" in="SourceGraphic" in2="effect1_dropShadow" result="shape"/>
</filter>
<filter id="filter30_d" x="47.4644" y="683" width="34.0711" height="31.871" filterUnits="userSpaceOnUse" color-interpolation-filters="sRGB">
<feFlood flood-opacity="0" result="BackgroundImageFix"/>
<feColorMatrix in="SourceAlpha" type="matrix" values="0 0 0 0 0 0 0 0 0 0 0 0 0 0 0 0 0 0 127 0"/>
<feOffset dy="4"/>
<feGaussianBlur stdDeviation="2"/>
<feColorMatrix type="matrix" values="0 0 0 0 0.87451 0 0 0 0 0.164706 0 0 0 0 0.380392 0 0 0 0.25 0"/>
<feBlend mode="normal" in2="BackgroundImageFix" result="effect1_dropShadow"/>
<feBlend mode="normal" in="SourceGraphic" in2="effect1_dropShadow" result="shape"/>
</filter>
<filter id="filter31_d" x="195.464" y="812" width="34.0711" height="31.871" filterUnits="userSpaceOnUse" color-interpolation-filters="sRGB">
<feFlood flood-opacity="0" result="BackgroundImageFix"/>
<feColorMatrix in="SourceAlpha" type="matrix" values="0 0 0 0 0 0 0 0 0 0 0 0 0 0 0 0 0 0 127 0"/>
<feOffset dy="4"/>
<feGaussianBlur stdDeviation="2"/>
<feColorMatrix type="matrix" values="0 0 0 0 0.65098 0 0 0 0 0.815686 0 0 0 0 0.27451 0 0 0 0.25 0"/>
<feBlend mode="normal" in2="BackgroundImageFix" result="effect1_dropShadow"/>
<feBlend mode="normal" in="SourceGraphic" in2="effect1_dropShadow" result="shape"/>
</filter>
<filter id="filter32_d" x="172.464" y="555" width="34.0711" height="31.871" filterUnits="userSpaceOnUse" color-interpolation-filters="sRGB">
<feFlood flood-opacity="0" result="BackgroundImageFix"/>
<feColorMatrix in="SourceAlpha" type="matrix" values="0 0 0 0 0 0 0 0 0 0 0 0 0 0 0 0 0 0 127 0"/>
<feOffset dy="4"/>
<feGaussianBlur stdDeviation="2"/>
<feColorMatrix type="matrix" values="0 0 0 0 0.0196078 0 0 0 0 0.196078 0 0 0 0 0.309804 0 0 0 0.25 0"/>
<feBlend mode="normal" in2="BackgroundImageFix" result="effect1_dropShadow"/>
<feBlend mode="normal" in="SourceGraphic" in2="effect1_dropShadow" result="shape"/>
</filter>
<filter id="filter33_d" x="64.3336" y="391.5" width="34.3329" height="33.1104" filterUnits="userSpaceOnUse" color-interpolation-filters="sRGB">
<feFlood flood-opacity="0" result="BackgroundImageFix"/>
<feColorMatrix in="SourceAlpha" type="matrix" values="0 0 0 0 0 0 0 0 0 0 0 0 0 0 0 0 0 0 127 0"/>
<feOffset dy="4"/>
<feGaussianBlur stdDeviation="2"/>
<feColorMatrix type="matrix" values="0 0 0 0 0.972549 0 0 0 0 0.596078 0 0 0 0 0.109804 0 0 0 0.25 0"/>
<feBlend mode="normal" in2="BackgroundImageFix" result="effect1_dropShadow"/>
<feBlend mode="normal" in="SourceGraphic" in2="effect1_dropShadow" result="shape"/>
</filter>
<filter id="filter34_d" x="195.536" y="243.75" width="33.9275" height="31.25" filterUnits="userSpaceOnUse" color-interpolation-filters="sRGB">
<feFlood flood-opacity="0" result="BackgroundImageFix"/>
<feColorMatrix in="SourceAlpha" type="matrix" values="0 0 0 0 0 0 0 0 0 0 0 0 0 0 0 0 0 0 127 0"/>
<feOffset dy="4"/>
<feGaussianBlur stdDeviation="2"/>
<feColorMatrix type="matrix" values="0 0 0 0 0.87451 0 0 0 0 0.164706 0 0 0 0 0.380392 0 0 0 0.25 0"/>
<feBlend mode="normal" in2="BackgroundImageFix" result="effect1_dropShadow"/>
<feBlend mode="normal" in="SourceGraphic" in2="effect1_dropShadow" result="shape"/>
</filter>
<filter id="filter35_d" x="114.464" y="48" width="34.0711" height="31.871" filterUnits="userSpaceOnUse" color-interpolation-filters="sRGB">
<feFlood flood-opacity="0" result="BackgroundImageFix"/>
<feColorMatrix in="SourceAlpha" type="matrix" values="0 0 0 0 0 0 0 0 0 0 0 0 0 0 0 0 0 0 127 0"/>
<feOffset dy="4"/>
<feGaussianBlur stdDeviation="2"/>
<feColorMatrix type="matrix" values="0 0 0 0 0.65098 0 0 0 0 0.815686 0 0 0 0 0.27451 0 0 0 0.25 0"/>
<feBlend mode="normal" in2="BackgroundImageFix" result="effect1_dropShadow"/>
<feBlend mode="normal" in="SourceGraphic" in2="effect1_dropShadow" result="shape"/>
</filter>
</defs>
</svg>
