<svg width="1009" height="1800" viewBox="0 0 1009 1800" fill="none" xmlns="http://www.w3.org/2000/svg">
<g filter="url(#filter0_d)">
<path d="M215.997 1698.18C255.193 1849.57 90.9974 1602.77 4 1460.45L4 746.069L518.5 752C766.458 750.029 1214.74 783.444 866.122 956.598C517.504 1129.75 557.234 1188.81 620.677 1196.7C708.773 1207.54 830.368 1226.67 655.857 1294.51C500.396 1354.95 570.896 1402.69 610.783 1435.02C769.232 1586.61 1011.32 1838.1 712.071 1631.35C412.825 1424.61 377.272 1456.9 396.902 1498.89C466.625 1654.42 571.87 1917.11 435.061 1723.61C298.252 1530.11 244.436 1514.75 230.13 1513.08C209.088 1511.7 176.801 1546.79 215.997 1698.18Z" fill="#F2FBFD"/>
</g>
<g filter="url(#filter1_d)">
<path d="M688.189 16.283C539.148 0.82304 4.46293 0 4.46293 0L4.46289 990.794H558.225C806.068 994.359 1214.64 923.21 866.185 610.099C517.729 296.988 624.776 146.041 688.189 131.783C776.245 112.178 881 36.2832 688.189 16.283Z" fill="#F2FBFD"/>
</g>
<rect x="4.70947" y="925.911" width="440.408" height="146.956" fill="#F2FBFD"/>
<path d="M672.615 1029.71C672.615 1029.71 966.5 944.5 994 855L336 1012.5C327.048 1010.99 308.939 1024.46 326.749 1050.2C344.558 1075.95 672.615 1029.71 672.615 1029.71Z" fill="#F2FBFD"/>
<defs>
<filter id="filter0_d" x="0" y="746.069" width="997.964" height="1053.93" filterUnits="userSpaceOnUse" color-interpolation-filters="sRGB">
<feFlood flood-opacity="0" result="BackgroundImageFix"/>
<feColorMatrix in="SourceAlpha" type="matrix" values="0 0 0 0 0 0 0 0 0 0 0 0 0 0 0 0 0 0 127 0"/>
<feOffset dy="4"/>
<feGaussianBlur stdDeviation="2"/>
<feColorMatrix type="matrix" values="0 0 0 0 0.0196078 0 0 0 0 0.196078 0 0 0 0 0.309804 0 0 0 1 0"/>
<feBlend mode="normal" in2="BackgroundImageFix" result="effect1_dropShadow"/>
<feBlend mode="normal" in="SourceGraphic" in2="effect1_dropShadow" result="shape"/>
</filter>
<filter id="filter1_d" x="4.46289" y="0" width="1004.54" height="998.919" filterUnits="userSpaceOnUse" color-interpolation-filters="sRGB">
<feFlood flood-opacity="0" result="BackgroundImageFix"/>
<feColorMatrix in="SourceAlpha" type="matrix" values="0 0 0 0 0 0 0 0 0 0 0 0 0 0 0 0 0 0 127 0"/>
<feOffset dx="4" dy="4"/>
<feGaussianBlur stdDeviation="2"/>
<feColorMatrix type="matrix" values="0 0 0 0 0.0196078 0 0 0 0 0.196078 0 0 0 0 0.309804 0 0 0 1 0"/>
<feBlend mode="normal" in2="BackgroundImageFix" result="effect1_dropShadow"/>
<feBlend mode="normal" in="SourceGraphic" in2="effect1_dropShadow" result="shape"/>
</filter>
</defs>
</svg>
