<svg width="571" height="1506" viewBox="0 0 571 1506" fill="none" xmlns="http://www.w3.org/2000/svg">
<g filter="url(#filter0_d)">
<path d="M121 1408.5C142.976 1536.66 52.7777 1356.81 4 1236.33L4 631.578L292.47 636.598C431.495 634.93 682.837 663.217 487.375 809.799C291.912 956.381 365.126 1032.5 431.853 1032.5C486.265 1032.5 609.505 1035 431.853 1094C317.406 1132.01 348.846 1208.96 371.209 1236.33C460.048 1364.65 570.281 1567.02 402.5 1392C234.719 1216.98 220.035 1225.46 231.04 1261C270.133 1392.66 299.206 1601.38 222.5 1437.58C145.794 1273.77 121.974 1262.42 113.953 1261C102.155 1259.83 99.0236 1280.34 121 1408.5Z" fill="#F2FBFD"/>
</g>
<g filter="url(#filter1_d)">
<path d="M387.351 13.7842C302.768 13.7842 4.00002 0 4.00002 0L4 838.747H314.483C453.443 841.764 682.522 781.534 487.15 516.473C291.778 251.412 455.299 118.94 487.15 98C581.733 35.8169 514 13.7842 387.351 13.7842Z" fill="#F2FBFD"/>
</g>
<rect x="4.39795" y="783.821" width="246.928" height="124.404" fill="#F2FBFD"/>
<path d="M378.879 871.689C378.879 871.689 543.655 799.557 559.074 723.792L190.146 857.122C185.127 855.848 174.974 867.243 184.959 889.037C194.945 910.831 378.879 871.689 378.879 871.689Z" fill="#F2FBFD"/>
<defs>
<filter id="filter0_d" x="0" y="631.578" width="563.053" height="874.121" filterUnits="userSpaceOnUse" color-interpolation-filters="sRGB">
<feFlood flood-opacity="0" result="BackgroundImageFix"/>
<feColorMatrix in="SourceAlpha" type="matrix" values="0 0 0 0 0 0 0 0 0 0 0 0 0 0 0 0 0 0 127 0"/>
<feOffset dy="4"/>
<feGaussianBlur stdDeviation="2"/>
<feColorMatrix type="matrix" values="0 0 0 0 0.0196078 0 0 0 0 0.196078 0 0 0 0 0.309804 0 0 0 1 0"/>
<feBlend mode="normal" in2="BackgroundImageFix" result="effect1_dropShadow"/>
<feBlend mode="normal" in="SourceGraphic" in2="effect1_dropShadow" result="shape"/>
</filter>
<filter id="filter1_d" x="4" y="0" width="566.738" height="846.853" filterUnits="userSpaceOnUse" color-interpolation-filters="sRGB">
<feFlood flood-opacity="0" result="BackgroundImageFix"/>
<feColorMatrix in="SourceAlpha" type="matrix" values="0 0 0 0 0 0 0 0 0 0 0 0 0 0 0 0 0 0 127 0"/>
<feOffset dx="4" dy="4"/>
<feGaussianBlur stdDeviation="2"/>
<feColorMatrix type="matrix" values="0 0 0 0 0.0196078 0 0 0 0 0.196078 0 0 0 0 0.309804 0 0 0 1 0"/>
<feBlend mode="normal" in2="BackgroundImageFix" result="effect1_dropShadow"/>
<feBlend mode="normal" in="SourceGraphic" in2="effect1_dropShadow" result="shape"/>
</filter>
</defs>
</svg>
